<svg xmlns="http://www.w3.org/2000/svg" width="166.068" height="178.039" viewBox="0 0 166.068 178.039">
  <path id="icon-github" d="M58.641,145.49C18.9,157.475,18.9,125.516,3,121.521M114.282,169.46V138.539a27.008,27.008,0,0,0-7.472-20.853c24.959-2.8,51.19-12.3,51.19-55.929A43.58,43.58,0,0,0,146.082,31.8a40.7,40.7,0,0,0-.721-30.127s-9.379-2.8-31.079,11.825a105.826,105.826,0,0,0-55.641,0C36.941-1.123,27.562,1.674,27.562,1.674A40.7,40.7,0,0,0,26.846,31.8,43.586,43.586,0,0,0,14.923,62c0,43.3,26.231,52.813,51.19,55.929a27.007,27.007,0,0,0-7.472,20.614V169.46" transform="translate(3.068 3.579)" fill="none" stroke="#fff" stroke-linecap="round" stroke-linejoin="round" stroke-width="10"/>
</svg>
