<svg id="icon-link" xmlns="http://www.w3.org/2000/svg" width="166" height="166.005" viewBox="0 0 166 166.005">
  <path id="Path_2" data-name="Path 2" d="M100.8,35.731V5.927a5.929,5.929,0,0,1,10.334-3.966l53.359,59.288a5.929,5.929,0,0,1,.184,7.708l-53.359,65.217a5.929,5.929,0,0,1-10.518-3.741V100.889c-46.838,1.524-76.066,21.545-89.24,61.067A5.928,5.928,0,0,1,5.936,166a5.745,5.745,0,0,1-.955-.077,5.929,5.929,0,0,1-4.974-5.852C.007,90.258,42.036,38.968,100.8,35.731Z" transform="translate(-0.007 0)" fill="#fff"/>
</svg>
